<svg width="1749" height="436" xmlns="http://www.w3.org/2000/svg" xml:space="preserve" version="1.1">

 <g>
  <title>Layer 1</title>
  <g id="Layer_2_1_">
   <g id="svg_1">
    <path id="svg_2" fill="#73A952" d="m694.35198,7.45c-4.8,-4.8 -10.8,-4.4 -10.8,-4.4s-132.1,7.3 -200.3,8.9c-14.9,0.3 -29.8,0.6 -44.5,0.6l0,132.1c-6.4,-2.9 -12.4,-6 -18.7,-8.9c0,-41 0,-122.9 0,-122.9c-32.7,0.3 -100.3,-2.5 -100.3,-2.5s-159.4,-7.9 -176.5,-9.5c-11.1,-0.6 -25.4,-2.2 -43.8,1.6c-9.8,1.9 -37.8,8.3 -60.6,30.2c-50.8,45.1 -37.8,117.2 -36.2,128c1.9,13 7.6,49.8 35.6,81.6c51.4,63.2 162.6,61.6 162.6,61.6s13.7,32.7 34.6,62.5c28.3,37.1 57.2,66.4 85.1,69.9c70.8,0 212.7,0 212.7,0s13.7,0 31.8,-11.7c15.9,-9.5 29.8,-26.4 29.8,-26.4s14.6,-15.6 34.9,-51.1c6.4,-10.8 11.4,-21.6 15.9,-31.4c0,0 62.2,-131.8 62.2,-260.4c-1.8,-38.6 -11.3,-45.6 -13.5,-47.8l0,0zm-559.8,229.8c-29.2,-9.5 -41.6,-21 -41.6,-21s-21.6,-15.2 -32.4,-44.8c-18.4,-50.2 -1.6,-80.3 -1.6,-80.3s9.5,-25.4 43.5,-33.7c15.6,-4.1 34.9,-3.5 34.9,-3.5s7.9,67 17.8,106c8.3,33 27.9,87.6 27.9,87.6s-29.5,-3.6 -48.5,-10.3l0,0zm338.1,121c0,0 -7,16.2 -22.2,17.5c-6.7,0.3 -11.7,-1.3 -11.7,-1.3s-0.3,0 -6,-2.2l-127,-61.9c0,0 -12.4,-6.4 -14.3,-17.5c-2.5,-9.2 3.2,-20.3 3.2,-20.3l61.3,-126.1c0,0 5.4,-10.8 13.7,-14.6c0.6,-0.3 2.5,-1.3 5.1,-1.6c9.2,-2.2 20.3,3.2 20.3,3.2l124.8,60.3c0,0 14.3,6.4 17.1,18.1c2.2,8.3 -0.6,15.9 -1.9,19.4c-7.4,17.1 -62.4,127 -62.4,127l0,0z" class="st0"/>
    <path id="svg_3" fill="#73A952" d="m361.25198,266.85c-9.2,0 -17.5,6.7 -19.4,15.6c-2.2,8.9 2.2,18.4 10.2,22.5c8.6,4.4 19.7,1.9 25.7,-6c5.7,-7.9 4.8,-19.1 -1.9,-26l27,-55.2c1.6,0 4.1,0.3 7,-0.6c4.8,-1 7.9,-4.1 7.9,-4.1c4.8,1.9 9.8,4.1 14.9,7c5.4,2.9 10.5,5.4 15.2,8.3c1,0.6 1.9,1.3 3.2,2.2c1.9,1.6 3.8,3.5 5.4,6.4c2.2,6.4 -2.2,16.8 -2.2,16.8c-2.5,8.6 -20.6,45.7 -20.6,45.7c-9.2,-0.3 -17.1,5.7 -20,14c-2.9,9.2 1.3,19.4 10.2,24.1s19.7,1.9 25.4,-6c5.7,-7.6 5.1,-18.4 -1.3,-25.4c2.2,-4.1 4.1,-8.3 6.4,-12.7c5.7,-11.7 15.2,-34.3 15.2,-34.3c1,-1.9 6.4,-11.7 3.2,-24.1c-2.9,-12.7 -14.3,-18.7 -14.3,-18.7c-13.7,-8.9 -33,-17.1 -33,-17.1s0,-4.8 -1.3,-7.9c-1.3,-3.5 -3.2,-5.7 -4.4,-7c5.4,-10.8 10.5,-21.6 15.9,-32.7c-4.8,-2.2 -9.2,-4.4 -13.7,-7c-5.4,11.1 -10.8,22.2 -16.2,33.3c-7.6,0 -14.6,3.8 -18.1,10.5c-3.8,7 -3.2,15.9 2.2,22.2l-28.6,56.2l0,0z" class="st0"/>
   </g>
   <g id="svg_4">
    <path id="svg_5" fill="#303030" d="m917.85198,218.55l111.1,0l0,145.1c-18.1,5.7 -34.9,9.8 -50.8,12.4c-15.9,2.2 -32.1,3.5 -48.6,3.5c-42.2,0 -74.6,-12.4 -96.8,-37.1c-22.2,-24.8 -33.3,-60.3 -33.3,-107c0,-45.1 13,-80.3 38.7,-105.7s61.6,-37.8 107.3,-37.8c28.6,0 56.5,5.7 83.2,17.1l-19.7,47.3c-20.3,-10.2 -41.6,-15.2 -63.8,-15.2c-25.7,0 -46,8.6 -61.6,25.7c-15.6,17.1 -23.2,40.3 -23.2,69.5c0,30.5 6.4,53.7 18.7,69.5c12.4,15.9 30.5,24.1 54.3,24.1c12.4,0 25.1,-1.3 37.8,-3.8l0,-58.4l-53,0l0,-49.2l-0.3,0z" class="st1"/>
    <path id="svg_6" fill="#303030" d="m1078.55198,106.45c0,-19.1 10.5,-28.6 31.8,-28.6s31.8,9.5 31.8,28.6c0,9.2 -2.5,16.2 -7.9,21.3c-5.4,5.1 -13.3,7.6 -23.8,7.6c-21.2,-0.3 -31.9,-9.8 -31.9,-28.9zm60.9,269.3l-58.4,0l0,-214l58.4,0l0,214z" class="st1"/>
    <path id="svg_7" fill="#303030" d="m1281.05198,333.15c10.2,0 22.5,-2.2 36.8,-6.7l0,43.5c-14.6,6.4 -32.4,9.8 -53.7,9.8c-23.5,0 -40.3,-6 -51.1,-17.8c-10.8,-11.7 -15.9,-29.5 -15.9,-53l0,-103.1l-27.9,0l0,-24.8l32.1,-19.4l16.8,-45.1l37.5,0l0,45.4l60,0l0,43.8l-60,0l0,102.9c0,8.3 2.2,14.3 7,18.4c4.5,4.2 10.8,6.1 18.4,6.1z" class="st1"/>
    <path id="svg_8" fill="#303030" d="m1448.05198,379.55c-34.6,0 -61.3,-9.5 -80.6,-28.6c-19.4,-19.1 -29.2,-46 -29.2,-80.6c0,-35.9 8.9,-63.5 27,-83.2c17.8,-19.7 42.9,-29.5 74.3,-29.5c30.2,0 53.7,8.6 70.5,25.7s25.4,41 25.4,71.4l0,28.2l-138.1,0c0.6,16.5 5.4,29.5 14.6,38.7c9.2,9.2 22.2,14 38.7,14c13,0 25.1,-1.3 36.5,-4.1c11.4,-2.5 23.5,-7 35.9,-12.7l0,45.1c-10.2,5.1 -21.3,8.9 -32.7,11.4c-11.5,2.9 -25.4,4.2 -42.3,4.2zm-8.2,-180.4c-12.4,0 -22.2,3.8 -29.2,11.7s-11.1,19.1 -12.1,33.3l81.9,0c-0.3,-14.3 -4.1,-25.4 -11.4,-33.3c-7,-7.5 -16.8,-11.7 -29.2,-11.7z" class="st1"/>
    <path id="svg_9" fill="#303030" d="m1709.05198,375.75l-11.4,-29.2l-1.6,0c-9.8,12.4 -20,21 -30.5,25.7c-10.5,4.8 -23.8,7.3 -40.6,7.3c-20.6,0 -36.8,-5.7 -48.6,-17.5s-17.8,-28.6 -17.8,-50.2c0,-22.9 7.9,-39.4 23.8,-50.2c15.9,-10.8 39.7,-16.8 71.8,-17.8l37.1,-1.3l0,-9.5c0,-21.6 -11.1,-32.4 -33.3,-32.4c-17.1,0 -37.1,5.1 -60.3,15.6l-19.4,-39.4c24.8,-13 52.1,-19.4 81.9,-19.4c28.6,0 50.8,6.4 66,18.7c15.2,12.4 22.9,31.4 22.9,57.2l0,142.6l-40,0l0,-0.2zm-17.4,-99.1l-22.5,0.6c-16.8,0.6 -29.5,3.5 -37.8,9.2c-8.3,5.7 -12.4,14.3 -12.4,25.7c0,16.5 9.5,24.8 28.3,24.8c13.7,0 24.4,-3.8 32.4,-11.7c8.3,-7.9 12.1,-18.1 12.1,-31.1l0,-17.5l-0.1,0z" class="st1"/>
   </g>
  </g>
 </g>
</svg>