<svg width="286" height="90" viewBox="0 0 286 90" fill="none" xmlns="http://www.w3.org/2000/svg" role="img" aria-label="GitHub">
  <g transform="translate(8 8) scale(4.625)">
    <path fill="#24292F" fill-rule="evenodd" clip-rule="evenodd" d="M8 0C3.58 0 0 3.67 0 8.19c0 3.62 2.29 6.69 5.47 7.78.4.08.55-.18.55-.39 0-.19-.01-.84-.01-1.52-2.01.38-2.53-.5-2.69-.96-.09-.24-.48-.96-.82-1.15-.28-.16-.68-.55-.01-.56.63-.01 1.08.59 1.23.83.72 1.24 1.87.89 2.33.68.07-.53.28-.89.51-1.09-1.78-.21-3.64-.91-3.64-4.04 0-.89.31-1.62.82-2.19-.08-.21-.36-1.04.08-2.16 0 0 .67-.22 2.2.84A7.42 7.42 0 0 1 8 3.99c.68 0 1.36.09 1.99.27 1.52-1.06 2.19-.84 2.19-.84.44 1.12.16 1.95.08 2.16.51.57.82 1.3.82 2.19 0 3.14-1.87 3.83-3.65 4.04.29.26.54.76.54 1.54 0 1.11-.01 2.01-.01 2.23 0 .21.15.47.55.39A8.14 8.14 0 0 0 16 8.19C16 3.67 12.42 0 8 0Z"/>
  </g>
  <text x="96" y="62" fill="#24292F" font-family="Arial, Helvetica, sans-serif" font-size="48" font-weight="700" letter-spacing="-0.5">GitHub</text>
</svg>
